<svg xmlns="http://www.w3.org/2000/svg" viewBox="0 0 64 64" role="img" aria-label="Vortex Mec">
  <defs>
    <linearGradient id="o" x1="10" y1="10" x2="54" y2="54" gradientUnits="userSpaceOnUse">
      <stop stop-color="#f6b86f"/>
      <stop offset=".5" stop-color="#e8913a"/>
      <stop offset="1" stop-color="#b85a18"/>
    </linearGradient>
    <linearGradient id="s" x1="54" y1="10" x2="10" y2="54" gradientUnits="userSpaceOnUse">
      <stop stop-color="#f4f6f8"/>
      <stop offset=".5" stop-color="#c8ced4"/>
      <stop offset="1" stop-color="#7f8790"/>
    </linearGradient>
  </defs>

  <rect width="64" height="64" rx="14" fill="#0b0d12"/>

  <circle cx="32" cy="32" r="22" fill="#5b6470"/>
  <g fill="#5b6470">
    <rect x="29.2" y="5" width="5.6" height="8" rx="1.2" transform="rotate(0 32 32)"/>
    <rect x="29.2" y="5" width="5.6" height="8" rx="1.2" transform="rotate(45 32 32)"/>
    <rect x="29.2" y="5" width="5.6" height="8" rx="1.2" transform="rotate(90 32 32)"/>
    <rect x="29.2" y="5" width="5.6" height="8" rx="1.2" transform="rotate(135 32 32)"/>
    <rect x="29.2" y="5" width="5.6" height="8" rx="1.2" transform="rotate(180 32 32)"/>
    <rect x="29.2" y="5" width="5.6" height="8" rx="1.2" transform="rotate(225 32 32)"/>
    <rect x="29.2" y="5" width="5.6" height="8" rx="1.2" transform="rotate(270 32 32)"/>
    <rect x="29.2" y="5" width="5.6" height="8" rx="1.2" transform="rotate(315 32 32)"/>
  </g>
  <circle cx="32" cy="32" r="16.5" fill="#0b0d12"/>
  <circle cx="32" cy="32" r="15.2" fill="none" stroke="#7b8491" stroke-width="1.2"/>

  <path fill="url(#o)" d="M32 13c6.8 1.6 11.8 6.4 13.6 12.8-4.2-3.8-9.4-6-15-6.2.6-2.8.9-4.8 1.4-6.6z"/>
  <path fill="url(#s)" d="M51 32c-1.6 6.8-6.4 11.8-12.8 13.6 3.8-4.2 6-9.4 6.2-15 2.8.6 4.8.9 6.6 1.4z"/>
  <path fill="url(#o)" d="M32 51c-6.8-1.6-11.8-6.4-13.6-12.8 4.2 3.8 9.4 6 15 6.2-.6 2.8-.9 4.8-1.4 6.6z"/>
  <path fill="url(#s)" d="M13 32c1.6-6.8 6.4-11.8 12.8-13.6-3.8 4.2-6 9.4-6.2 15-2.8-.6-4.8-.9-6.6-1.4z"/>

  <circle cx="32" cy="32" r="5.2" fill="#111827" stroke="#a1a8b0" stroke-width="1.2"/>
  <circle cx="32" cy="32" r="2.1" fill="url(#o)"/>
</svg>
